<?xml version="1.0" encoding="UTF-8"?>
<svg width="500px" height="500px" viewBox="0 0 500 500" version="1.1" xmlns="http://www.w3.org/2000/svg" xmlns:xlink="http://www.w3.org/1999/xlink">
    <!-- Generator: Sketch 46.2 (44496) - http://www.bohemiancoding.com/sketch -->
    <title>GitHub</title>
    <desc>Created with Sketch.</desc>
    <defs></defs>
    <g id="GitHub" fill="#3F344C">
        <path d="M444.817761,143.060308 C424.697637,108.586844 397.405973,81.2941539 362.935587,61.1760819 C328.46007,41.0569838 290.823084,31 249.997948,31 C209.177943,31 171.528642,41.0600621 137.060308,61.1760819 C102.586844,81.2931277 75.2962061,108.586844 55.1760819,143.060308 C35.059036,177.532747 25,215.176916 25,255.991791 C25,305.019715 39.3040867,349.10688 67.9194429,388.264574 C96.5317207,427.425346 133.494548,454.523074 178.804846,469.560835 C184.079093,470.539752 187.983473,469.851227 190.522089,467.512703 C193.061731,465.171102 194.330013,462.238456 194.330013,458.72708 C194.330013,458.141166 194.279733,452.869998 194.182252,442.907417 C194.081693,432.944836 194.034491,424.253615 194.034491,416.83786 L187.295974,418.00353 C182.999617,418.790562 177.579661,419.124051 171.036106,419.029648 C164.495629,418.938323 157.705805,418.252877 150.67587,416.978438 C143.642856,415.715286 137.101353,412.785719 131.04623,408.195893 C124.994185,403.606066 120.697829,397.598145 118.158186,390.181363 L115.228619,383.439767 C113.275916,378.951526 110.201666,373.965618 106.001765,368.500513 C101.801863,363.030277 97.5547605,359.321886 93.2584039,357.369184 L91.2071938,355.900809 C89.8404044,354.92497 88.5721224,353.748013 87.3992694,352.38225 C86.2274425,351.016486 85.3501115,349.649697 84.7641981,348.280855 C84.1772585,346.910988 84.6636385,345.787388 86.2284686,344.905953 C87.7932988,344.024517 90.6212803,343.596626 94.7247267,343.596626 L100.581809,344.471905 C104.488241,345.254833 109.320231,347.593356 115.083936,351.50184 C120.844564,355.407246 125.580099,360.484478 129.291568,366.731485 C133.785965,374.741364 139.200791,380.844714 145.551436,385.044616 C151.89695,389.244517 158.294797,391.340876 164.738819,391.340876 C171.182841,391.340876 176.748505,390.852444 181.437865,389.88071 C186.122094,388.903846 190.516958,387.435471 194.620405,385.483794 C196.378145,372.392579 201.16396,362.335595 208.973745,355.30566 C197.842416,354.135885 187.834686,352.374041 178.945424,350.031413 C170.061293,347.685707 160.880615,343.878809 151.409544,338.600457 C141.933343,333.329288 134.072252,326.783681 127.824219,318.974922 C121.57516,311.162058 116.446621,300.904981 112.445787,288.212926 C108.4429,275.515741 106.440943,260.868931 106.440943,244.268391 C106.440943,220.63176 114.157352,200.517793 129.58709,183.915202 C122.359114,166.144888 123.041483,146.223831 131.636248,124.154082 C137.30042,122.394289 145.700223,123.714903 156.831552,128.107715 C167.964934,132.502579 176.116417,136.267406 181.294209,139.388858 C186.472001,142.509283 190.620596,145.153589 193.746152,147.298176 C211.913573,142.22197 230.661778,139.683354 249.995896,139.683354 C269.330013,139.683354 288.082322,142.22197 306.25077,147.298176 L317.383125,140.270293 C324.995896,135.580933 333.985716,131.283551 344.331039,127.377119 C354.682519,123.472739 362.597994,122.397368 368.069256,124.15716 C376.85488,146.227935 377.637808,166.147966 370.407779,183.91828 C385.836491,200.520871 393.555978,220.639969 393.555978,244.27147 C393.555978,260.872009 391.546839,275.564994 387.550109,288.359661 C383.548248,301.15638 378.375587,311.403196 372.030072,319.121657 C365.677375,326.839091 357.766004,333.333393 348.294934,338.603535 C338.821811,343.877782 329.638054,347.684681 320.753923,350.030387 C311.865688,352.376093 301.857958,354.138964 290.726628,355.310791 C300.879041,364.096414 305.956274,377.964401 305.956274,396.908593 L305.956274,458.718871 C305.956274,462.230247 307.177354,465.161867 309.621568,467.504494 C312.062703,469.843018 315.917828,470.531543 321.192076,469.5516 C366.50853,454.515891 403.471358,427.417138 432.082609,388.256365 C460.690783,349.098672 475,305.011506 475,255.983582 C474.989739,215.173838 464.925572,177.532747 444.817761,143.060308 Z" id="Shape"></path>
    </g>
</svg>