<?xml version="1.0" encoding="UTF-8"?>
<svg width="500px" height="500px" viewBox="0 0 500 500" version="1.1" xmlns="http://www.w3.org/2000/svg" xmlns:xlink="http://www.w3.org/1999/xlink">
    <!-- Generator: Sketch 46.2 (44496) - http://www.bohemiancoding.com/sketch -->
    <title>Medium</title>
    <desc>Created with Sketch.</desc>
    <defs></defs>
    <g id="Medium" fill="#3F344C">
        <path d="M475,123.129094 L457.212204,123.129094 C450.606796,123.129094 441.244798,132.791321 441.244798,138.978307 L441.244798,362.894528 C441.244798,369.081514 450.606796,377.506345 457.212204,377.506345 L475,377.506345 L475,430.661765 L313.739598,430.661765 L313.739598,377.506345 L347.4948,377.506345 L347.4948,142.11129 L345.856449,142.11129 L267.033634,430.661765 L206.024619,430.661765 L128.216019,142.11129 L126.239598,142.11129 L126.239598,377.506345 L159.994798,377.506345 L159.994798,430.661765 L25,430.661765 L25,377.506345 L42.293689,377.506345 C49.4192095,377.506345 58.755202,369.081514 58.755202,362.894528 L58.755202,138.978307 C58.755202,132.791321 49.4192095,123.129094 42.293689,123.129094 L25,123.129094 L25,70 L193.802011,70 L249.245838,278.80418 L250.754162,278.80418 L306.692094,70 L475,70 L475,123.129094" id="Shape"></path>
    </g>
</svg>