<?xml version="1.0" encoding="UTF-8"?>
<svg width="500px" height="500px" viewBox="0 0 500 500" version="1.1" xmlns="http://www.w3.org/2000/svg" xmlns:xlink="http://www.w3.org/1999/xlink">
    <!-- Generator: Sketch 46.2 (44496) - http://www.bohemiancoding.com/sketch -->
    <title>Twitter</title>
    <desc>Created with Sketch.</desc>
    <defs></defs>
    <g id="Twitter" fill="#3F344C">
        <path d="M450,125.529585 C435.277754,132.067895 419.480996,136.502102 402.883583,138.481741 C419.83067,128.310381 432.80324,112.177178 438.951616,93.0122844 C423.054858,102.431617 405.50777,109.271262 386.811008,112.978991 C371.839088,96.9709066 350.542975,87 326.922021,87 C281.605607,87 244.86241,123.826388 244.86241,169.220511 C244.86241,175.658595 245.587248,181.946666 246.98725,187.959606 C178.80021,184.527009 118.336713,151.784363 77.8693266,102.030711 C70.7954588,114.156162 66.7712692,128.284833 66.7712692,143.36664 C66.7712692,171.901081 81.2686785,197.078259 103.264793,211.80829 C89.8170585,211.357598 77.1693254,207.64987 66.0967583,201.486918 L66.0967583,202.514077 C66.0967583,242.346608 94.3915758,275.590387 131.909284,283.156511 C125.035417,285.010375 117.787039,286.037534 110.288334,286.037534 C104.989632,286.037534 99.865441,285.511508 94.8412497,284.509242 C105.288979,317.202103 135.5838,340.976109 171.477323,341.62791 C143.407342,363.673826 108.01382,376.775994 69.5712738,376.775994 C62.9477336,376.775994 56.4235399,376.375088 50,375.648609 C86.31836,399.022364 129.435424,412.650558 175.776676,412.650558 C326.723328,412.650558 409.233267,287.340479 409.233267,178.665392 L408.958103,168.018448 C425.079698,156.493702 439.026779,142.013909 450,125.529585 Z" id="Shape"></path>
    </g>
</svg>