<?xml version="1.0" encoding="UTF-8"?>
<svg width="500px" height="500px" viewBox="0 0 500 500" version="1.1" xmlns="http://www.w3.org/2000/svg" xmlns:xlink="http://www.w3.org/1999/xlink">
    <!-- Generator: Sketch 46.2 (44496) - http://www.bohemiancoding.com/sketch -->
    <title>Facebook</title>
    <desc>Created with Sketch.</desc>
    <g id="Facebook" fill="#3F344C">
        <path d="M448.280328,25.007377 L49.7278689,25.007377 C36.0803279,25.007377 25,36.0655738 25,49.7352459 L25,448.287705 C25,461.957377 36.0803279,473.030328 49.7278689,473.030328 L264.296721,473.030328 L264.296721,299.529508 L205.914754,299.529508 L205.914754,231.904098 L264.296721,231.904098 L264.296721,182.035246 C264.296721,124.177049 299.62541,92.654918 351.25,92.654918 C376,92.654918 397.22377,94.5065574 403.413115,95.3106557 L403.413115,155.787705 L367.604918,155.802459 C339.535246,155.802459 334.120492,169.147541 334.120492,188.718852 L334.120492,231.881967 L401.089344,231.881967 L392.332787,299.5 L334.113115,299.5 L334.113115,473.008197 L448.272951,473.008197 C461.935246,473.008197 473.022951,461.920492 473.022951,448.287705 L473.022951,49.7204918 C473.015574,36.0655738 461.942623,25.007377 448.280328,25.007377 Z" id="Shape"></path>
    </g>
</svg>