<?xml version="1.0" encoding="UTF-8"?>
<svg width="500px" height="500px" viewBox="0 0 500 500" version="1.1" xmlns="http://www.w3.org/2000/svg" xmlns:xlink="http://www.w3.org/1999/xlink">
    <!-- Generator: Sketch 46.2 (44496) - http://www.bohemiancoding.com/sketch -->
    <title>LambdaBook Logo</title>
    <desc>Created with Sketch.</desc>
    <defs>
        <rect id="path-1" x="-1.42108547e-14" y="-7.10542736e-15" width="500" height="500"></rect>
    </defs>
    <g id="Page-1" stroke="none" stroke-width="1" fill="none" fill-rule="evenodd">
        <g id="LambdaBook-Logo">
            <path d="M150,387.679144 L234.313725,195.700535 L225.935829,172.349376 L187.254902,183.935829 L180.30303,160.941176 L216.31016,150.067736 C213.220424,144.60128 209.655398,140.67975 205.614973,138.30303 C201.574549,135.92631 196.048758,134.737968 189.037433,134.737968 C181.669601,134.737968 174.836633,135.450973 168.538324,136.877005 L168.538324,111.030303 C176.619173,109.010091 184.640483,108 192.602496,108 C205.55562,108 216.161575,110.554936 224.420677,115.664884 C232.67978,120.774832 239.839542,129.212062 245.900178,140.976827 L285.828877,128.855615 L292.602496,151.850267 L255.525847,163.614973 L320.766488,345.254902 C323.143209,352.028554 325.727853,357.019592 328.520499,360.228164 C331.313145,363.436736 334.848463,365.040998 339.12656,365.040998 C341.978624,365.040998 345.603068,364.446827 350,363.258467 L350,386.966132 C344.0582,389.818196 337.106398,391.244207 329.144385,391.244207 C320.35052,391.244207 313.279884,389.045774 307.932264,384.648841 C302.584643,380.251909 298.009526,372.646519 294.206774,361.832442 L267.468806,286.966132 C257.367745,258.088982 251.3072,238.719004 249.286988,228.855615 L247.860963,228.855615 C243.939374,243.828952 237.225241,262.604759 227.71836,285.183601 L183.15508,387.679144 L150,387.679144 Z" id="ƛ" fill="#3F344C"></path>
        </g>
    </g>
</svg>