<?xml version="1.0" encoding="UTF-8"?>
<svg width="500px" height="500px" viewBox="0 0 500 500" version="1.1" xmlns="http://www.w3.org/2000/svg" xmlns:xlink="http://www.w3.org/1999/xlink">
    <!-- Generator: Sketch 46.2 (44496) - http://www.bohemiancoding.com/sketch -->
    <title>Slack</title>
    <desc>Created with Sketch.</desc>
    <defs></defs>
    <g id="Slack" fill-rule="nonzero" fill="#3F344C">
        <path d="M471.555433,259.259521 C462.682063,239.395481 439.367998,230.479561 419.503099,239.352547 L400.539848,247.85344 L351.936678,139.216605 L370.899929,130.744334 C390.764829,121.842726 399.666823,98.5439813 390.779141,78.6942526 C381.90577,58.8159013 358.606018,49.8999814 338.726806,58.8015901 L319.777867,67.288172 L311.290918,48.3114306 C302.403236,28.4473906 279.103483,19.5600932 259.238584,28.4473906 C239.373684,37.3203768 230.486002,60.6048098 239.359372,80.4974723 L247.846321,99.4599024 L139.204784,148.046657 L130.732147,129.084227 C121.844465,109.191565 98.5447123,100.33289 78.6798127,109.191565 C58.814913,118.078862 49.9272309,141.377606 58.8006011,161.241646 L67.2732384,180.189765 L48.3242995,188.690658 C28.4593999,197.577956 19.5574059,220.848078 28.445088,240.726429 C37.3184581,260.590469 60.6325227,269.492078 80.4974224,260.619091 L99.4606731,252.118198 L148.035219,360.769345 L129.071968,369.241615 C109.207068,378.128913 100.319386,401.441968 109.192757,421.291697 C118.080439,441.170048 141.380191,450.071657 161.245091,441.198671 L180.19403,432.712089 L188.680979,451.674519 C197.568661,471.55287 220.868414,480.440168 240.733313,471.55287 C260.583901,462.679884 269.485895,439.38114 260.598213,419.5171 L252.139888,400.540359 L360.781425,351.967915 L369.254062,370.8731 C378.141744,390.780074 401.427185,399.681683 421.306396,390.794385 C441.171296,381.93571 450.07329,358.622655 441.185608,338.744303 L432.712971,319.796185 L451.647598,311.295291 C471.541121,302.407994 480.443115,279.123561 471.555433,259.259521 Z M219.966765,328.611926 L171.377907,219.946468 L280.019444,171.374024 L328.608302,280.01086 L219.966765,328.611926 Z" id="Shape"></path>
    </g>
</svg>